<svg xmlns="http://www.w3.org/2000/svg" viewBox="0 0 1073 902.34"><defs><style>.cls-1{fill:#f38120;}</style></defs><g id="Layer_2" data-name="Layer 2"><g id="Layer_1-2" data-name="Layer 1"><path class="cls-1" d="M638.91,403.47c-.38,19.9,2,40,3.47,60,1.3,17.17,6.73,33.32,14.64,48.76a159.28,159.28,0,0,1,17,57.66c1.17,12.08,2.83,24.07,3.51,36.24,1.1,19.42-1,38.48-4.34,57.43-1.36,7.6-4.26,15-7.24,22.23-7.14,17.21-16.33,33.2-29,47.09-7.06,7.74-15.82,12.72-25.32,16.28-16.94,6.33-34.25,11.62-51.62,16.72-6,1.75-11.52,5.05-17.21,7.74-2.76,1.31-2.92,3.53-2.22,6.32,2.08,8.24,5.47,16,8.89,23.68,6.27,14,6.92,28.16,3.61,42.81-2.28,10.07-1.29,20.65-4.45,30.54-5.17,16.2-13.28,23.44-31.39,25.23-11.09,1.09-18-6.73-22.95-15.29-7.59-13.19-11-28-11.14-43-.06-8.61,2.09-17.28,5-25.8,4.16-12,6.67-24.81,3.77-37.69-2-8.86-7.68-15.16-16.11-18.53a486.34,486.34,0,0,1-50.79-23.14c-12.23-6.59-23-14.86-34-22.94-7.89-5.8-13-14.13-17.24-22.72-8.77-17.81-12.83-37-10.73-56.62.94-8.85,1.05-18.23,5.35-26.84,2.34-4.7,2.87-10.45,4.35-15.71,3.45-12.27,8-24.11,12.39-36.06,2.15-5.9,3.43-12.2,5.1-18.31,6.17-22.65,7.41-46.15,12.51-68.93,4.5-20.07,7.09-40.44,10.7-60.64,1.56-8.78,1.42-17.93,1.27-26.9-.1-6.47-3.74-10.8-9.71-14.21a71.2,71.2,0,0,0-22-8.33c-11.42-2.23-22.51-.7-33.64,1.57q-28.09,5.73-56.2,11.41c-15.31,3.12-30.65,6.08-45.9,9.47-10.9,2.42-21.31,1.07-31.76-2.28-15.49-5-30.17-11.88-45.13-18.14-10.67-4.46-21.51-8.67-31.81-13.82-6.83-3.42-13.79-6.89-20.63-10.22-9.67-4.71-19.48-9.33-29.5-13.4-12.49-5.07-25.06-10.1-37-16.3-6-3.08-12-6.78-16.74-12-8.66-9.44-19.15-17.15-26.59-27.73-2.56-3.64-4.33-7.83-6.62-11.68s-1.53-8.31-1-12.25c.71-5.86,6.61-5.27,10.61-5.88,12.77-2,25.2.54,37.36,4.32,21.38,6.64,41.71,16.11,62.8,23.59a333.44,333.44,0,0,0,55.34,14.11,24.38,24.38,0,0,0,15.92-2.63c.87-.49,2-.63,2.13-1.77.14-1.4-1.06-1.91-2-2.55-11-7.17-23.05-12.19-34.9-17.63-13.45-6.18-26.93-12.32-40.46-18.31C96.77,233.8,86,229.75,75.6,224.75c-12.7-6.13-26.39-10-38.27-18.06-3.87-2.61-8.13-4.66-11.66-7.85-12.16-11-16.4-25.52-17.78-41.06-1.34-15.07-3.56-30.27-.72-45.3,2.5-13.21,4.65-26.47,6.11-39.8C14.65,60.14,16,47.57,18.36,35.23c2-10.46,2.69-21.32,7.46-31.23A6.91,6.91,0,0,1,32.55.06c6.87,1.35,13.92.82,20.68,4.47A42.23,42.23,0,0,1,73.08,27c6.27,15.73,8.6,32.42,10.77,49.07C85.66,90,87.26,103.94,95,116a113.21,113.21,0,0,0,30.58,31.5c17.78,12.5,35.73,25.32,57.19,30,20.87,4.59,41.95,8.75,63.29,10.95a24.2,24.2,0,0,0,4,.13c6.85-.44,7.57-1.94,6.68-8.7-2.13-16-8.89-30.51-15.25-45-2.73-6.21-8.07-11.67-13.23-16.66a126.81,126.81,0,0,1-20.84-25.39c-3.95-6.56-6.49-13.86-1.89-21.46a4.59,4.59,0,0,1,1.09-1.55,37,37,0,0,1,22.5-5.8C243.33,65,256.49,69.4,269.21,76c16.51,8.59,32.12,18.17,45.54,31.24,4.95,4.81,5.69,10.66,6.23,16.74a47.13,47.13,0,0,1-.31,10.48c-3,21,.22,41.34,5.07,61.73,5.34,22.47,9.84,45.14,17,67.13a40.82,40.82,0,0,0,8.63,15.36c2.93,3.16,7.09,4.35,10.63,5.91a294.93,294.93,0,0,0,56.27,17.87c1.9.42,4,2.4,5.61,1.16,3.52-2.77,7.86-4.47,10-9.09,5-10.61,8.32-21.82,12.61-32.68,5.2-13.19,13.49-21.12,28.58-22.65,31.36-3.17,62.13-.11,92.67,6.55,6.57,1.44,13.35,2.92,19.37,6.26,7,3.86,11.41,9.76,15.35,16.74,4.41,7.81,8.44,15.83,13.07,23.5,1.68,2.78,3,5.74,4.95,8.47,5.52,7.78,12.48,7.3,20.49,5.26,13.86-3.53,24-12.89,33.17-23.42,6-6.88,9.09-15.12,12.27-23.52,6-15.88,9.76-32.41,14.93-48.53,3.4-10.59,5.67-21.53,8.92-32.17a156.21,156.21,0,0,1,8-21.25c2.5-5.27,7.29-8.65,12.08-12.16a60.85,60.85,0,0,1,10.71-6.35c6.42-2.86,12.56-6.49,19.37-8.52,9.66-2.89,19-6.74,29.14-8.13,10.54-1.44,13.09.61,14.29,11.29,1.18,10.45-1.4,20.51-2.45,30.7-.64,6.25-5.7,10.2-10.66,13.78-8.89,6.41-17.8,12.8-26.43,19.54-8.32,6.49-8,13.28-.47,20.83A60.35,60.35,0,0,0,782.07,231c9.25,4.13,18.31,3.73,27.74,0,9-3.55,17-8.81,24.94-14,9.88-6.52,20.59-12.84,26.45-23.45,2.94-5.33,6.89-10,9.43-15.76,2.28-5.15,5.77-10.13,8.75-15.17,3.43-5.8,7.15-11.44,10.53-17.27s7.18-11.39,10.46-17.22c1.86-3.31,4.35-6.23,5.73-9.95,1-2.83,4.12-4.84,5.83-7.51,4.07-6.38,10.26-6.34,16.89-7.23,10.28-1.39,18-8.19,25.26-15.38,11.94-11.87,21.46-25.71,32-38.68,6.37-7.8,12.14-16.2,21.13-21.36,7.15-4.11,15-2.06,20.07,4.27,7,8.77,7.62,19.17,8.38,29.6,1.08,14.63-1.68,28.87-6,42.6a57.1,57.1,0,0,1-16.83,25.36c-32.15,28.71-64.85,56.85-95.66,87-5.92,5.79-11.89,11.54-16.14,18.89-6.13,10.6-1.44,19.71,11,20.88,9.43.89,18.07-2.16,26.7-5.14,5.11-1.76,10.56-3.31,14.88-6.34,4.11-2.88,8.75-4.71,13-7.2,3.89-2.3,8.31-4.25,12.16-6.73,12.15-7.83,21.08-19.13,30.69-29.69,7.14-7.84,14-15.92,22.42-22.57a12.12,12.12,0,0,1,8.42-2.37c7.64.37,15.28,1,22.88,2,5.4.64,10.26,7.33,9.81,13.65-1,13.57-3.38,26.88-8.3,39.63-2.27,5.89-3.83,12.26-7.21,17.44-2.2,3.36-2.78,7.45-5.81,10.44-2.3,2.29-3,6.06-4.18,9.08-4.12,10.57-12.9,15.78-21.9,20.68-20.94,11.41-42.49,21.6-62.42,35a233.16,233.16,0,0,1-77.93,33.38c-12.93,3-25.73,6.48-38.89,8.47-21.41,3.23-42.6,3.56-63.88-2-18.29-4.75-36.69-9.72-56-8.44-23.81,1.58-47.23,5.69-70.57,10.36-1.47.29-2.92.68-4.39,1-9.87,1.9-11.43,3.49-12.26,13.55A132.49,132.49,0,0,0,638.91,403.47Z"/></g></g></svg>